<svg width="147" height="139" viewBox="0 0 147 139" fill="none" xmlns="http://www.w3.org/2000/svg">
<rect x="14" width="133" height="62" rx="10" fill="#0C0A09"/>
<rect x="3" y="77" width="144" height="62" rx="10" fill="#0C0A09"/>
<rect x="3" y="45" width="34" height="94" rx="10" fill="#0C0A09"/>
<path d="M43.0742 2L34.127 44.8359L33.624 47.2451H57.6445L14.9795 126.157L26.875 68.0352L27.3662 65.6338H2.46289L15.8008 2H43.0742Z" fill="#FB923C" stroke="white" stroke-width="4" stroke-linecap="round"/>
<rect x="112" y="20" width="26" height="5" rx="2" fill="#686868"/>
<rect x="112" y="28" width="26" height="5" rx="2" fill="#686868"/>
<rect x="112" y="36" width="26" height="5" rx="2" fill="#686868"/>
<rect x="112" y="97" width="26" height="5" rx="2" fill="#686868"/>
<rect x="112" y="105" width="26" height="5" rx="2" fill="#686868"/>
<rect x="112" y="113" width="26" height="5" rx="2" fill="#686868"/>
</svg>
